<?xml version="1.0" encoding="UTF-8" standalone="no"?>
<svg
   xmlns:dc="http://purl.org/dc/elements/1.1/"
   xmlns:cc="http://creativecommons.org/ns#"
   xmlns:rdf="http://www.w3.org/1999/02/22-rdf-syntax-ns#"
   xmlns:svg="http://www.w3.org/2000/svg"
   xmlns="http://www.w3.org/2000/svg"
   viewBox="0 0 1587.4 1122.52"
   height="1122.52"
   width="1587.4"
   xml:space="preserve"
   id="svg2"
   version="1.1"><metadata
     id="metadata8"><rdf:RDF><cc:Work
         rdf:about=""><dc:format>image/svg+xml</dc:format><dc:type
           rdf:resource="http://purl.org/dc/dcmitype/StillImage" /></cc:Work></rdf:RDF></metadata><defs
     id="defs6"><clipPath
       id="clipPath18"
       clipPathUnits="userSpaceOnUse"><path
         id="path16"
         d="M 0,841.89 H 1190.551 V 0 H 0 Z" /></clipPath></defs><g
     transform="matrix(1.3333333,0,0,-1.3333333,0,1122.52)"
     id="g10"><g
       id="g12"><g
         clip-path="url(#clipPath18)"
         id="g14"><g
           transform="translate(147.7506,380.6424)"
           id="g20"><path
             id="path22"
             style="fill:#231f20;fill-opacity:1;fill-rule:nonzero;stroke:none"
             d="m 0,0 c 0,0 -26.796,86.028 -15.513,153.723 11.282,67.694 22.564,125.516 64.873,138.209 42.309,12.693 62.054,-15.513 62.054,-63.463 0,-47.951 -62.006,-67.695 -64.85,-94.49 -2.845,-26.796 49.336,-46.54 57.798,-11.283 8.462,35.258 -16.923,55.002 18.334,94.49 35.258,39.489 126.927,25.386 114.234,-26.795 -12.692,-52.182 -80.387,-71.926 -90.259,-122.697 -9.872,-50.77 -21.154,-71.925 -2.82,-142.44 18.333,-70.515 -60.643,-111.414 -73.336,-69.105 -12.693,42.309 23.81,67.695 39.406,110.004 15.596,42.309 30.178,97.674 28.641,114.587 -2.115,23.27 -38.431,9.515 -55.354,-13.753 C 66.284,43.719 40.899,-12.693 31.027,43.719 26.044,72.194 24.294,89.53 23.784,99.716 23.08,113.77 20.398,127.685 15.224,140.771 9.687,154.777 -3.324,165.66 -6.346,139.972 -11.988,92.022 -8.462,38.078 0,0" /></g><g
           transform="translate(302.4606,419.0236)"
           id="g24"><path
             id="path26"
             style="fill:#231f20;fill-opacity:1;fill-rule:nonzero;stroke:none"
             d="m 0,0 c -9.783,-35.178 -11.181,-90.611 10.736,-134.922 21.918,-44.312 58.792,-64.455 123.883,-77.989 34.531,-7.18 107.641,6.075 120.029,45.069 12.389,38.995 -7.582,79.89 -36.171,65.71 -28.588,-14.18 -17.208,-86.094 -84.811,-90.877 -51.564,-3.648 -80.75,18.206 -92.31,34.158 -11.561,15.952 -8.702,40.767 41.804,35.45 50.506,-5.318 89.482,-23.381 91.482,4.431 2.774,38.566 -36.212,58.491 -76.235,43.425 C 58.383,-90.611 32.654,-110.994 20.266,-92.383 7.877,-73.772 8.412,-25.21 42.027,-2.066 106.548,42.358 205.371,-50.188 192.224,44.474 186.935,82.552 135.65,106.35 83.417,92.278 47.316,82.552 14.294,51.401 0,0" /></g><g
           transform="translate(503.7323,501.0281)"
           id="g28"><path
             id="path30"
             style="fill:#231f20;fill-opacity:1;fill-rule:nonzero;stroke:none"
             d="m 0,0 c 0.231,-13.861 7.529,-26.688 18.939,-34.563 23.516,-16.23 62.837,-35.756 77.786,-106.646 7.525,-35.688 -15.872,-102.558 -42.377,-138.984 -26.506,-36.426 33.641,-75.465 65.243,-41.563 31.603,33.902 21.408,90.406 13.253,117.116 -8.156,26.711 -43.523,123.743 -93.788,189.03 C 12.778,18.522 -0.211,12.653 0,0" /></g><g
           transform="translate(521.1276,531.1919)"
           id="g32"><path
             id="path34"
             style="fill:#231f20;fill-opacity:1;fill-rule:nonzero;stroke:none"
             d="M 0,0 C 20.302,9.554 37.02,28.559 12.693,48.655 -11.635,68.752 -72.983,64.521 -68.752,29.616 -64.521,-5.289 -17.981,-8.462 0,0" /></g><g
           transform="translate(720.6114,511.9414)"
           id="g36"><path
             id="path38"
             style="fill:#231f20;fill-opacity:1;fill-rule:nonzero;stroke:none"
             d="m 0,0 c -8.984,-6.463 -16.758,-14.421 -23.542,-23.165 -7.941,-10.234 -24.946,-28.727 -43.433,-27.601 -25.481,1.55 -46.213,20.141 -47.928,44.292 -1.715,24.15 21.585,53.788 51.275,61.424 29.689,7.636 112.71,24.993 143.14,-25.456 17.523,-29.052 16.035,-59.485 -30.859,-110.76 -46.894,-51.274 -82.479,-70.856 -81.068,-106.037 2.286,-57.042 85.579,-27.903 112.869,0.032 27.29,27.934 29.897,42.973 45.477,57.211 41.726,38.134 84.976,-26.045 41.916,-48.076 -30.321,-15.513 -70.476,52.226 -118.465,-86.028 -22.212,-63.992 -110.225,-31.975 -125.112,44.424 -6.046,31.027 16.291,69.694 41.337,86.674 35.357,23.971 61.35,39.714 73.198,52.417 C 52.097,-66.397 71,-39.137 63.89,-10.366 58.495,11.462 33.996,24.458 0,0" /></g><g
           transform="translate(921.8583,675.4637)"
           id="g40"><path
             id="path42"
             style="fill:#231f20;fill-opacity:1;fill-rule:nonzero;stroke:none"
             d="m 0,0 c -23.575,0.77 -46.993,-5.996 -65.433,-20.703 -15.386,-12.271 -30.336,-31.859 -35.8,-62.877 -12.857,-72.983 8.22,-148.392 81.283,-193.965 45.156,-28.166 136.797,-36.157 161.333,-9.991 26.05,27.779 4.718,61.586 -28.059,41.723 -34.827,-21.106 -53.799,-48.882 -109.296,-29.257 -40.239,14.229 -66.522,41.883 -74.787,65.479 -8.265,23.596 6.974,46.148 31.77,45.09 24.796,-1.058 64.521,-83.428 105.773,-46.408 23.077,20.711 11.635,75.099 -51.829,77.214 -27.556,0.919 -25.139,-3.425 -69.81,-4.23 -13.521,-0.244 -35.077,15.533 -23.442,71.773 7.762,37.52 68.05,66.088 93.252,-5.137 24.328,-68.752 114.019,-63.979 103.469,-4.408 C 111.112,-34.411 57.91,-1.892 0,0" /></g><g
           transform="translate(326.7363,129.5933)"
           id="g44"><path
             id="path46"
             style="fill:#231f20;fill-opacity:1;fill-rule:nonzero;stroke:none"
             d="M 0,0 H 1.72 L 5.981,-12.622 10.242,0 h 1.64 L 6.941,-14.303 h -2.08 z" /></g><path
           id="path48"
           style="fill:#231f20;fill-opacity:1;fill-rule:nonzero;stroke:none"
           d="m 363.997,129.593 h 1.74 V 115.29 h -1.74 z" /><g
           transform="translate(396.0171,116.7105)"
           id="g50"><path
             id="path52"
             style="fill:#231f20;fill-opacity:1;fill-rule:nonzero;stroke:none"
             d="m 0,0 c 3.681,0 5.521,2.201 5.521,5.701 v 0.16 c 0,3.301 -1.6,5.621 -5.541,5.621 H -1.96 L -1.96,0 Z M -3.701,12.883 H 0.08 c 4.921,0 7.242,-3.04 7.242,-7.022 V 5.682 C 7.322,1.721 5.042,-1.42 0.04,-1.42 h -3.741 z" /></g><g
           transform="translate(429.1167,129.5933)"
           id="g54"><path
             id="path56"
             style="fill:#231f20;fill-opacity:1;fill-rule:nonzero;stroke:none"
             d="M 0,0 H 8.342 V -1.42 H 1.74 v -4.861 h 5.322 v -1.42 H 1.74 v -5.182 h 6.962 v -1.42 H 0 Z" /></g><g
           transform="translate(474.6392,122.4117)"
           id="g58"><path
             id="path60"
             style="fill:#231f20;fill-opacity:1;fill-rule:nonzero;stroke:none"
             d="m 0,0 v 0.16 c 0,3.201 -1.88,5.802 -5.181,5.802 -3.321,0 -5.241,-2.441 -5.241,-5.842 v -0.16 c 0,-3.46 2.3,-5.82 5.281,-5.82 C -1.96,-5.86 0,-3.46 0,0 m -12.223,-0.06 v 0.161 c 0,4.06 2.841,7.261 7.042,7.261 C -0.98,7.362 1.8,4.161 1.8,0.141 V -0.02 c 0,-4.041 -2.78,-7.281 -6.941,-7.281 -4.221,0 -7.082,3.24 -7.082,7.241" /></g><g
           transform="translate(534.5771,122.4918)"
           id="g62"><path
             id="path64"
             style="fill:#231f20;fill-opacity:1;fill-rule:nonzero;stroke:none"
             d="m 0,0 c 2.04,0 3.141,1.001 3.141,2.841 v 0.08 C 3.141,4.941 1.94,5.701 0,5.701 H -2.441 V 0 Z m -4.181,7.102 h 4.061 c 2.741,0 5.001,-1.201 5.001,-4.181 v -0.08 c 0,-3.04 -2.28,-4.221 -5.001,-4.221 h -2.321 v -5.821 h -1.74 z" /></g><g
           transform="translate(569.3169,122.8922)"
           id="g66"><path
             id="path68"
             style="fill:#231f20;fill-opacity:1;fill-rule:nonzero;stroke:none"
             d="m 0,0 c 2.041,0 3.141,0.88 3.141,2.641 v 0.08 C 3.141,4.661 1.94,5.301 0,5.301 H -2.681 V 0 Z m -4.421,6.701 h 4.301 c 2.741,0 5.001,-1.12 5.001,-3.98 V 2.641 C 4.881,0.28 3.301,-0.88 1.34,-1.26 L 5.721,-7.602 H 3.781 L -0.48,-1.38 h -2.201 v -6.222 h -1.74 z" /></g><g
           transform="translate(611.6577,122.4117)"
           id="g70"><path
             id="path72"
             style="fill:#231f20;fill-opacity:1;fill-rule:nonzero;stroke:none"
             d="m 0,0 v 0.16 c 0,3.201 -1.88,5.802 -5.181,5.802 -3.321,0 -5.241,-2.441 -5.241,-5.842 v -0.16 c 0,-3.46 2.3,-5.82 5.281,-5.82 C -1.96,-5.86 0,-3.46 0,0 m -12.223,-0.06 v 0.161 c 0,4.06 2.841,7.261 7.042,7.261 C -0.98,7.362 1.8,4.161 1.8,0.141 V -0.02 c 0,-4.041 -2.78,-7.281 -6.941,-7.281 -4.221,0 -7.082,3.24 -7.082,7.241" /></g><g
           transform="translate(642.9355,116.7105)"
           id="g74"><path
             id="path76"
             style="fill:#231f20;fill-opacity:1;fill-rule:nonzero;stroke:none"
             d="m 0,0 c 3.681,0 5.521,2.201 5.521,5.701 v 0.16 c 0,3.301 -1.6,5.621 -5.541,5.621 H -1.96 L -1.96,0 Z M -3.701,12.883 H 0.08 c 4.921,0 7.242,-3.04 7.242,-7.022 V 5.682 C 7.322,1.721 5.042,-1.42 0.04,-1.42 h -3.741 z" /></g><g
           transform="translate(675.9146,120.5113)"
           id="g78"><path
             id="path80"
             style="fill:#231f20;fill-opacity:1;fill-rule:nonzero;stroke:none"
             d="M 0,0 V 9.082 H 1.741 V 0.2 c 0,-3 1.06,-4.16 3.44,-4.16 2.281,0 3.641,0.92 3.641,4.421 v 8.621 h 1.741 V 0.221 C 10.563,-3.261 8.822,-5.4 5.141,-5.4 1.86,-5.4 0,-3.48 0,0" /></g><g
           transform="translate(712.1348,122.3521)"
           id="g82"><path
             id="path84"
             style="fill:#231f20;fill-opacity:1;fill-rule:nonzero;stroke:none"
             d="m 0,0 v 0.16 c 0,4.241 2.841,7.302 6.722,7.302 2.98,0 5.501,-1.581 5.801,-4.682 H 10.802 C 10.442,4.961 9.182,6.081 6.742,6.081 3.781,6.081 1.8,3.781 1.8,0.18 V 0.02 c 0,-3.641 1.841,-5.841 4.922,-5.841 2.34,0 3.961,1.18 4.32,3.501 h 1.621 C 12.163,-5.621 9.882,-7.241 6.682,-7.241 2.541,-7.241 0,-4.401 0,0" /></g><g
           transform="translate(753.0562,128.1734)"
           id="g86"><path
             id="path88"
             style="fill:#231f20;fill-opacity:1;fill-rule:nonzero;stroke:none"
             d="M 0,0 H -4.161 V 1.42 H 5.901 V 0 H 1.74 V -12.883 H 0 Z" /></g><path
           id="path90"
           style="fill:#231f20;fill-opacity:1;fill-rule:nonzero;stroke:none"
           d="m 784.315,129.593 h 1.74 V 115.29 h -1.74 z" /><g
           transform="translate(824.1572,122.4117)"
           id="g92"><path
             id="path94"
             style="fill:#231f20;fill-opacity:1;fill-rule:nonzero;stroke:none"
             d="m 0,0 v 0.16 c 0,3.201 -1.88,5.802 -5.181,5.802 -3.321,0 -5.241,-2.441 -5.241,-5.842 v -0.16 c 0,-3.46 2.3,-5.82 5.281,-5.82 C -1.96,-5.86 0,-3.46 0,0 m -12.223,-0.06 v 0.161 c 0,4.06 2.841,7.261 7.042,7.261 C -0.98,7.362 1.8,4.161 1.8,0.141 V -0.02 c 0,-4.041 -2.78,-7.281 -6.941,-7.281 -4.221,0 -7.082,3.24 -7.082,7.241" /></g><g
           transform="translate(851.7349,129.5933)"
           id="g96"><path
             id="path98"
             style="fill:#231f20;fill-opacity:1;fill-rule:nonzero;stroke:none"
             d="M 0,0 H 2.261 L 9.222,-11.822 V 0 h 1.66 v -14.303 h -2 L 1.661,-2.04 V -14.303 H 0 Z" /></g></g></g></g></svg>